C:\Users\israe\Dropbox\PhDWork\Simulation\code\PassiveMoments\Data/trialHip_ankle0knee0_ankle0knee-15_ankle0knee-60.mot
nRows=141
nColumns=4

name C:\Users\israe\Dropbox\PhDWork\Simulation\code\PassiveMoments\Data/trialHip_ankle0knee0_ankle0knee-15_ankle0knee-60.mot
datacolumns 4
datarows 141
range 1.5000000000 2.9000000000
endheader
time	ankle_angle_r	knee_angle_r	hip_flexion_r
        1.5000000000	       -0.0000000000	      -15.0000000000	        4.7575757576	
        1.5100000000	       -0.0000000000	      -15.0000000000	        4.2727272727	
        1.5200000000	       -0.0000000000	      -15.0000000000	        3.7878787879	
        1.5300000000	       -0.0000000000	      -15.0000000000	        3.3030303030	
        1.5400000000	       -0.0000000000	      -15.0000000000	        2.8181818182	
        1.5500000000	       -0.0000000000	      -15.0000000000	        2.3333333333	
        1.5600000000	       -0.0000000000	      -15.0000000000	        1.8484848485	
        1.5700000000	       -0.0000000000	      -15.0000000000	        1.3636363636	
        1.5800000000	       -0.0000000000	      -15.0000000000	        0.8787878788	
        1.5900000000	       -0.0000000000	      -15.0000000000	        0.3939393939	
        1.6000000000	       -0.0000000000	      -15.0000000000	       -0.0909090909	
        1.6100000000	       -0.0000000000	      -15.0000000000	       -0.5757575758	
        1.6200000000	       -0.0000000000	      -15.0000000000	       -1.0606060606	
        1.6300000000	       -0.0000000000	      -15.0000000000	       -1.5454545455	
        1.6400000000	       -0.0000000000	      -15.0000000000	       -2.0303030303	
        1.6500000000	       -0.0000000000	      -15.0000000000	       -2.5151515152	
        1.6600000000	       -0.0000000000	      -15.0000000000	       -3.0000000000	
        1.6700000000	       -0.0000000000	      -15.0000000000	       -3.4848484848	
        1.6800000000	       -0.0000000000	      -15.0000000000	       -3.9696969697	
        1.6900000000	       -0.0000000000	      -15.0000000000	       -4.4545454545	
        1.7000000000	       -0.0000000000	      -15.0000000000	       -4.9393939394	
        1.7100000000	       -0.0000000000	      -15.0000000000	       -5.4242424242	
        1.7200000000	       -0.0000000000	      -15.0000000000	       -5.9090909091	
        1.7300000000	       -0.0000000000	      -15.0000000000	       -6.3939393939	
        1.7400000000	       -0.0000000000	      -15.0000000000	       -6.8787878788	
        1.7500000000	       -0.0000000000	      -15.0000000000	       -7.3636363636	
        1.7600000000	       -0.0000000000	      -15.0000000000	       -7.8484848485	
        1.7700000000	       -0.0000000000	      -15.0000000000	       -8.3333333333	
        1.7800000000	       -0.0000000000	      -15.0000000000	       -8.8181818182	
        1.7900000000	       -0.0000000000	      -15.0000000000	       -9.3030303030	
        1.8000000000	       -0.0000000000	      -15.0000000000	       -9.7878787879	
        1.8100000000	       -0.0000000000	      -15.0000000000	      -10.2727272727	
        1.8200000000	       -0.0000000000	      -15.0000000000	      -10.7575757576	
        1.8300000000	       -0.0000000000	      -15.0000000000	      -11.2424242424	
        1.8400000000	       -0.0000000000	      -15.0000000000	      -11.7272727273	
        1.8500000000	       -0.0000000000	      -15.0000000000	      -12.2121212121	
        1.8600000000	       -0.0000000000	      -15.0000000000	      -12.6969696970	
        1.8700000000	       -0.0000000000	      -15.0000000000	      -13.1818181818	
        1.8800000000	       -0.0000000000	      -15.0000000000	      -13.6666666667	
        1.8900000000	       -0.0000000000	      -15.0000000000	      -14.1515151515	
        1.9000000000	       -0.0000000000	      -15.0000000000	      -14.6363636364	
        1.9100000000	       -0.0000000000	      -15.0000000000	      -15.1212121212	
        1.9200000000	       -0.0000000000	      -15.0000000000	      -15.6060606061	
        1.9300000000	       -0.0000000000	      -15.0000000000	      -16.0909090909	
        1.9400000000	       -0.0000000000	      -15.0000000000	      -16.5757575758	
        1.9500000000	       -0.0000000000	      -15.0000000000	      -17.0606060606	
        1.9600000000	       -0.0000000000	      -15.0000000000	      -17.5454545455	
        1.9700000000	       -0.0000000000	      -15.0000000000	      -18.0303030303	
        1.9800000000	       -0.0000000000	      -15.0000000000	      -18.5151515152	
        1.9900000000	       -0.0000000000	      -15.0000000000	      -19.0000000000	
        2.0000000000	       -0.0000000000	      -60.0000000000	       28.0000000000	
        2.0100000000	       -0.0000000000	      -60.0000000000	       27.5151515152	
        2.0200000000	       -0.0000000000	      -60.0000000000	       27.0303030303	
        2.0300000000	       -0.0000000000	      -60.0000000000	       26.5454545455	
        2.0400000000	       -0.0000000000	      -60.0000000000	       26.0606060606	
        2.0500000000	       -0.0000000000	      -60.0000000000	       25.5757575758	
        2.0600000000	       -0.0000000000	      -60.0000000000	       25.0909090909	
        2.0700000000	       -0.0000000000	      -60.0000000000	       24.6060606061	
        2.0800000000	       -0.0000000000	      -60.0000000000	       24.1212121212	
        2.0900000000	       -0.0000000000	      -60.0000000000	       23.6363636364	
        2.1000000000	       -0.0000000000	      -60.0000000000	       23.1515151515	
        2.1100000000	       -0.0000000000	      -60.0000000000	       22.6666666667	
        2.1200000000	       -0.0000000000	      -60.0000000000	       22.1818181818	
        2.1300000000	       -0.0000000000	      -60.0000000000	       21.6969696970	
        2.1400000000	       -0.0000000000	      -60.0000000000	       21.2121212121	
        2.1500000000	       -0.0000000000	      -60.0000000000	       20.7272727273	
        2.1600000000	       -0.0000000000	      -60.0000000000	       20.2424242424	
        2.1700000000	       -0.0000000000	      -60.0000000000	       19.7575757576	
        2.1800000000	       -0.0000000000	      -60.0000000000	       19.2727272727	
        2.1900000000	       -0.0000000000	      -60.0000000000	       18.7878787879	
        2.2000000000	       -0.0000000000	      -60.0000000000	       18.3030303030	
        2.2100000000	       -0.0000000000	      -60.0000000000	       17.8181818182	
        2.2200000000	       -0.0000000000	      -60.0000000000	       17.3333333333	
        2.2300000000	       -0.0000000000	      -60.0000000000	       16.8484848485	
        2.2400000000	       -0.0000000000	      -60.0000000000	       16.3636363636	
        2.2500000000	       -0.0000000000	      -60.0000000000	       15.8787878788	
        2.2600000000	       -0.0000000000	      -60.0000000000	       15.3939393939	
        2.2700000000	       -0.0000000000	      -60.0000000000	       14.9090909091	
        2.2800000000	       -0.0000000000	      -60.0000000000	       14.4242424242	
        2.2900000000	       -0.0000000000	      -60.0000000000	       13.9393939394	
        2.3000000000	       -0.0000000000	      -60.0000000000	       13.4545454545	
        2.3100000000	       -0.0000000000	      -60.0000000000	       12.9696969697	
        2.3200000000	       -0.0000000000	      -60.0000000000	       12.4848484848	
        2.3300000000	       -0.0000000000	      -60.0000000000	       12.0000000000	
        2.3400000000	       -0.0000000000	      -60.0000000000	       11.5151515152	
        2.3500000000	       -0.0000000000	      -60.0000000000	       11.0303030303	
        2.3600000000	       -0.0000000000	      -60.0000000000	       10.5454545455	
        2.3700000000	       -0.0000000000	      -60.0000000000	       10.0606060606	
        2.3800000000	       -0.0000000000	      -60.0000000000	        9.5757575758	
        2.3900000000	       -0.0000000000	      -60.0000000000	        9.0909090909	
        2.4000000000	       -0.0000000000	      -60.0000000000	        8.6060606061	
        2.4100000000	       -0.0000000000	      -60.0000000000	        8.1212121212	
        2.4200000000	       -0.0000000000	      -60.0000000000	        7.6363636364	
        2.4300000000	       -0.0000000000	      -60.0000000000	        7.1515151515	
        2.4400000000	       -0.0000000000	      -60.0000000000	        6.6666666667	
        2.4500000000	       -0.0000000000	      -60.0000000000	        6.1818181818	
        2.4600000000	       -0.0000000000	      -60.0000000000	        5.6969696970	
        2.4700000000	       -0.0000000000	      -60.0000000000	        5.2121212121	
        2.4800000000	       -0.0000000000	      -60.0000000000	        4.7272727273	
        2.4900000000	       -0.0000000000	      -60.0000000000	        4.2424242424	
        2.5000000000	       -0.0000000000	      -60.0000000000	        3.7575757576	
        2.5100000000	       -0.0000000000	      -60.0000000000	        3.2727272727	
        2.5200000000	       -0.0000000000	      -60.0000000000	        2.7878787879	
        2.5300000000	       -0.0000000000	      -60.0000000000	        2.3030303030	
        2.5400000000	       -0.0000000000	      -60.0000000000	        1.8181818182	
        2.5500000000	       -0.0000000000	      -60.0000000000	        1.3333333333	
        2.5600000000	       -0.0000000000	      -60.0000000000	        0.8484848485	
        2.5700000000	       -0.0000000000	      -60.0000000000	        0.3636363636	
        2.5800000000	       -0.0000000000	      -60.0000000000	       -0.1212121212	
        2.5900000000	       -0.0000000000	      -60.0000000000	       -0.6060606061	
        2.6000000000	       -0.0000000000	      -60.0000000000	       -1.0909090909	
        2.6100000000	       -0.0000000000	      -60.0000000000	       -1.5757575758	
        2.6200000000	       -0.0000000000	      -60.0000000000	       -2.0606060606	
        2.6300000000	       -0.0000000000	      -60.0000000000	       -2.5454545455	
        2.6400000000	       -0.0000000000	      -60.0000000000	       -3.0303030303	
        2.6500000000	       -0.0000000000	      -60.0000000000	       -3.5151515152	
        2.6600000000	       -0.0000000000	      -60.0000000000	       -4.0000000000	
        2.6700000000	       -0.0000000000	      -60.0000000000	       -4.4848484848	
        2.6800000000	       -0.0000000000	      -60.0000000000	       -4.9696969697	
        2.6900000000	       -0.0000000000	      -60.0000000000	       -5.4545454545	
        2.7000000000	       -0.0000000000	      -60.0000000000	       -5.9393939394	
        2.7100000000	       -0.0000000000	      -60.0000000000	       -6.4242424242	
        2.7200000000	       -0.0000000000	      -60.0000000000	       -6.9090909091	
        2.7300000000	       -0.0000000000	      -60.0000000000	       -7.3939393939	
        2.7400000000	       -0.0000000000	      -60.0000000000	       -7.8787878788	
        2.7500000000	       -0.0000000000	      -60.0000000000	       -8.3636363636	
        2.7600000000	       -0.0000000000	      -60.0000000000	       -8.8484848485	
        2.7700000000	       -0.0000000000	      -60.0000000000	       -9.3333333333	
        2.7800000000	       -0.0000000000	      -60.0000000000	       -9.8181818182	
        2.7900000000	       -0.0000000000	      -60.0000000000	      -10.3030303030	
        2.8000000000	       -0.0000000000	      -60.0000000000	      -10.7878787879	
        2.8100000000	       -0.0000000000	      -60.0000000000	      -11.2727272727	
        2.8200000000	       -0.0000000000	      -60.0000000000	      -11.7575757576	
        2.8300000000	       -0.0000000000	      -60.0000000000	      -12.2424242424	
        2.8400000000	       -0.0000000000	      -60.0000000000	      -12.7272727273	
        2.8500000000	       -0.0000000000	      -60.0000000000	      -13.2121212121	
        2.8600000000	       -0.0000000000	      -60.0000000000	      -13.6969696970	
        2.8700000000	       -0.0000000000	      -60.0000000000	      -14.1818181818	
        2.8800000000	       -0.0000000000	      -60.0000000000	      -14.6666666667	
        2.8900000000	       -0.0000000000	      -60.0000000000	      -15.1515151515	
        2.9000000000	       -0.0000000000	      -60.0000000000	      -15.6363636364	
